<?xml version="1.0" encoding="UTF-8" standalone="no"?>
<!-- Created with Inkscape (http://www.inkscape.org/) -->

<svg
   xmlns:dc="http://purl.org/dc/elements/1.1/"
   xmlns:cc="http://creativecommons.org/ns#"
   xmlns:rdf="http://www.w3.org/1999/02/22-rdf-syntax-ns#"
   xmlns:svg="http://www.w3.org/2000/svg"
   xmlns="http://www.w3.org/2000/svg"
   xmlns:sodipodi="http://sodipodi.sourceforge.net/DTD/sodipodi-0.dtd"
   xmlns:inkscape="http://www.inkscape.org/namespaces/inkscape"
   width="120mm"
   height="175mm"
   viewBox="0 0 120 174.99999"
   version="1.1"
   id="svg938"
   inkscape:version="0.92.3 (2405546, 2018-03-11)"
   sodipodi:docname="blank_logo.svg">
  <defs
     id="defs932" />
  <sodipodi:namedview
     id="base"
     pagecolor="#ffffff"
     bordercolor="#666666"
     borderopacity="1.0"
     inkscape:pageopacity="0.0"
     inkscape:pageshadow="2"
     inkscape:zoom="0.24748737"
     inkscape:cx="601.25544"
     inkscape:cy="344.53807"
     inkscape:document-units="mm"
     inkscape:current-layer="flowRoot4136-3-1-2"
     showgrid="false"
     inkscape:window-width="1920"
     inkscape:window-height="1014"
     inkscape:window-x="0"
     inkscape:window-y="1107"
     inkscape:window-maximized="1" />
  <metadata
     id="metadata935">
    <rdf:RDF>
      <cc:Work
         rdf:about="">
        <dc:format>image/svg+xml</dc:format>
        <dc:type
           rdf:resource="http://purl.org/dc/dcmitype/StillImage" />
        <dc:title></dc:title>
      </cc:Work>
    </rdf:RDF>
  </metadata>
  <g
     inkscape:label="Layer 1"
     inkscape:groupmode="layer"
     id="layer1"
     transform="translate(0,-122)">
    <rect
       y="123.36113"
       x="1.3611318"
       height="172.27774"
       width="117.27773"
       id="rect4696"
       style="opacity:0.64099995;fill:none;fill-opacity:1;stroke:#313131;stroke-width:2.72226357;stroke-miterlimit:4;stroke-dasharray:none;stroke-opacity:1" />
    <g
       aria-label=":com
 put
 eri
 zat
 ion"
       transform="matrix(2.2113611,0,0,1.6548169,-332.95978,-317.20642)"
       style="font-style:normal;font-weight:normal;line-height:0.01%;font-family:sans-serif;letter-spacing:0px;word-spacing:0px;fill:#333333;fill-opacity:1;stroke:none;stroke-width:1px;stroke-linecap:butt;stroke-linejoin:miter;stroke-opacity:1"
       id="flowRoot4136-3-1-2">
      <path
         d="m 157.7535,273.73548 h 3.08865 v 3.49178 h -3.08865 z m 0,6.6583 h 3.08865 v 3.51091 h -3.08865 z"
         style="line-height:100%;fill:#d40000;stroke-width:0.96458161px"
         id="path1621"
         inkscape:connector-curvature="0" />
      <path
         d="m 174.85701,283.3594 q -0.68637,0.41136 -1.47477,0.61225 -0.7884,0.21047 -1.69737,0.21047 -2.40227,0 -3.75646,-1.49238 -1.35418,-1.49238 -1.35418,-4.13273 0,-2.64993 1.36346,-4.14231 1.36346,-1.50194 3.76574,-1.50194 0.83477,0 1.60461,0.2009 0.77912,0.20089 1.54897,0.62182 v 2.56383 q -0.59361,-0.52616 -1.30781,-0.80359 -0.70491,-0.28699 -1.46549,-0.28699 -1.32635,0 -2.04054,0.87055 -0.7142,0.87055 -0.7142,2.47773 0,1.60717 0.7142,2.46816 0.71419,0.86098 2.04054,0.86098 0.78839,0 1.47477,-0.26786 0.68635,-0.27743 1.29853,-0.83229 z"
         style="font-style:normal;font-variant:normal;font-weight:bold;font-stretch:normal;font-size:20px;line-height:100%;font-family:'DejaVu Sans Mono';-inkscape-font-specification:'DejaVu Sans Mono Bold';fill:#333333;stroke-width:0.96458161px"
         id="path1623"
         inkscape:connector-curvature="0" />
      <path
         d="m 182.1566,275.20873 q -0.9739,0 -1.53041,0.88968 -0.55651,0.88012 -0.55651,2.4586 0,1.57847 0.55651,2.46816 0.55651,0.88012 1.53041,0.88012 0.98317,0 1.53969,-0.88012 0.55651,-0.88969 0.55651,-2.46816 0,-1.57848 -0.55651,-2.4586 -0.55652,-0.88968 -1.53969,-0.88968 z m -4.80456,3.34828 q 0,-2.59254 1.29853,-4.10404 1.3078,-1.52107 3.50603,-1.52107 2.2075,0 3.50603,1.52107 1.30781,1.5115 1.30781,4.10404 0,2.59252 -1.30781,4.1136 -1.29853,1.51151 -3.50603,1.51151 -2.19823,0 -3.50603,-1.51151 -1.29853,-1.52108 -1.29853,-4.1136 z"
         style="font-style:normal;font-variant:normal;font-weight:bold;font-stretch:normal;font-size:20px;line-height:100%;font-family:'DejaVu Sans Mono';-inkscape-font-specification:'DejaVu Sans Mono Bold';fill:#333333;stroke-width:0.96458161px"
         id="path1625"
         inkscape:connector-curvature="0" />
      <path
         d="m 194.27004,274.26164 q 0.30607,-0.67922 0.77911,-1.00448 0.47305,-0.32526 1.1594,-0.32526 1.34492,0 1.85506,0.95664 0.5194,0.95665 0.5194,3.97968 v 6.03647 h -2.22605 v -6.87833 q 0,-1.19582 -0.17622,-1.59761 -0.17624,-0.40179 -0.64,-0.40179 -0.46375,0 -0.64926,0.41136 -0.18551,0.41137 -0.18551,1.58804 v 6.87833 h -2.19823 v -6.87833 q 0,-1.17667 -0.1855,-1.58804 -0.1855,-0.41136 -0.64927,-0.41136 -0.46376,0 -0.63998,0.40179 -0.17623,0.40179 -0.17623,1.59761 v 6.87833 h -2.22605 v -10.7145 h 1.97562 v 1.10971 q 0.23188,-0.63138 0.74202,-0.99491 0.51013,-0.37309 1.14084,-0.37309 0.63072,0 1.15014,0.39222 0.51941,0.38267 0.63071,0.93752 z"
         style="font-style:normal;font-variant:normal;font-weight:bold;font-stretch:normal;font-size:20px;line-height:100%;font-family:'DejaVu Sans Mono';-inkscape-font-specification:'DejaVu Sans Mono Bold';fill:#333333;stroke-width:0.96458161px"
         id="path1627"
         inkscape:connector-curvature="0" />
      <path
         d="m 169.11564,301.9854 v 5.58685 h -2.70836 v -14.78983 h 2.70836 v 1.60718 q 0.42666,-0.92797 1.1223,-1.39672 0.69565,-0.46876 1.63244,-0.46876 1.78084,0 2.76402,1.47324 0.98318,1.47324 0.98318,4.15188 0,2.71688 -1.00173,4.17099 -0.99244,1.45411 -2.83822,1.45411 -0.83477,0 -1.50258,-0.44005 -0.65854,-0.44963 -1.15941,-1.34889 z m 3.7843,-3.85529 q 0,-1.54979 -0.50087,-2.4299 -0.50086,-0.88013 -1.382,-0.88013 -0.88116,0 -1.39129,0.88013 -0.51014,0.88011 -0.51014,2.4299 0,1.54977 0.51014,2.42988 0.51013,0.88012 1.39129,0.88012 0.88114,0 1.382,-0.88012 0.50087,-0.88011 0.50087,-2.42988 z"
         style="font-style:normal;font-variant:normal;font-weight:bold;font-stretch:normal;font-size:20px;line-height:100%;font-family:'DejaVu Sans Mono';-inkscape-font-specification:'DejaVu Sans Mono Bold';fill:#333333;stroke-width:0.96458161px"
         id="path1629"
         inkscape:connector-curvature="0" />
      <path
         d="m 177.9271,299.75641 v -6.97399 h 2.71765 v 6.5435 q 0,1.15755 0.31535,1.655 0.31536,0.49746 1.0481,0.49746 0.73274,0 1.14084,-0.66966 0.4174,-0.66965 0.4174,-1.87503 v -6.15127 h 2.71764 v 10.7145 h -2.71764 v -1.58805 q -0.28754,0.88969 -0.98318,1.37759 -0.68636,0.48788 -1.66027,0.48788 -1.48403,0 -2.2446,-1.01404 -0.75129,-1.01406 -0.75129,-3.00389 z"
         style="font-style:normal;font-variant:normal;font-weight:bold;font-stretch:normal;font-size:20px;line-height:100%;font-family:'DejaVu Sans Mono';-inkscape-font-specification:'DejaVu Sans Mono Bold';fill:#333333;stroke-width:0.96458161px"
         id="path1631"
         inkscape:connector-curvature="0" />
      <path
         d="m 194.27004,289.74026 v 3.04216 h 3.5524 v 2.15246 h -3.5524 v 5.07026 q 0,0.71748 0.33391,1.03318 0.34318,0.30613 1.13158,0.30613 h 2.08691 v 2.15247 h -2.2817 q -2.33736,0 -3.16285,-0.76533 -0.82549,-0.77488 -0.82549,-2.86038 v -4.93633 h -2.65271 v -2.15246 h 2.65271 v -3.04216 z"
         style="font-style:normal;font-variant:normal;font-weight:bold;font-stretch:normal;font-size:20px;line-height:100%;font-family:'DejaVu Sans Mono';-inkscape-font-specification:'DejaVu Sans Mono Bold';fill:#333333;stroke-width:0.96458161px"
         id="path1633"
         inkscape:connector-curvature="0" />
      <path
         d="m 175.23729,322.56299 q -0.94608,0.40179 -1.92925,0.60269 -0.98317,0.20089 -2.07765,0.20089 -2.60633,0 -3.98834,-1.43498 -1.37273,-1.44455 -1.37273,-4.15186 0,-2.62123 1.32635,-4.14231 1.32636,-1.52108 3.61734,-1.52108 2.30952,0 3.58023,1.41585 1.27998,1.40628 1.27998,3.97011 v 1.13842 h -7.03989 q 0.01,1.26277 0.72347,1.88459 0.71419,0.62183 2.13329,0.62183 0.9368,0 1.84577,-0.27742 0.90897,-0.27744 1.90143,-0.88013 z m -2.30026,-6.02691 q -0.0185,-1.10971 -0.55651,-1.67415 -0.52869,-0.57398 -1.56751,-0.57398 -0.9368,0 -1.49331,0.59312 -0.55652,0.58356 -0.65854,1.66457 z"
         style="font-style:normal;font-variant:normal;font-weight:bold;font-stretch:normal;font-size:20px;line-height:100%;font-family:'DejaVu Sans Mono';-inkscape-font-specification:'DejaVu Sans Mono Bold';fill:#333333;stroke-width:0.96458161px"
         id="path1635"
         inkscape:connector-curvature="0" />
      <path
         d="m 187.11884,315.33069 q -0.44521,-0.42092 -1.04809,-0.63138 -0.59362,-0.21047 -1.30782,-0.21047 -0.86258,0 -1.51185,0.3157 -0.63999,0.30613 -0.99245,0.89925 -0.22261,0.36352 -0.31536,0.88013 -0.0835,0.51658 -0.0835,1.5689 v 4.93632 h -2.71764 v -10.7145 h 2.71764 v 1.66458 q 0.39884,-0.91839 1.22434,-1.41584 0.82549,-0.50704 1.92924,-0.50704 0.55651,0 1.0852,0.1435 0.53796,0.13393 1.02027,0.4018 z"
         style="font-style:normal;font-variant:normal;font-weight:bold;font-stretch:normal;font-size:20px;line-height:100%;font-family:'DejaVu Sans Mono';-inkscape-font-specification:'DejaVu Sans Mono Bold';fill:#333333;stroke-width:0.96458161px"
         id="path1637"
         inkscape:connector-curvature="0" />
      <path
         d="m 189.91996,312.37464 h 5.37962 v 8.56204 h 3.37618 v 2.15246 h -9.47927 v -2.15246 h 3.38546 v -6.40957 h -2.66199 z m 2.66199,-5.21375 h 2.71763 v 3.27175 h -2.71763 z"
         style="font-style:normal;font-variant:normal;font-weight:bold;font-stretch:normal;font-size:20px;line-height:100%;font-family:'DejaVu Sans Mono';-inkscape-font-specification:'DejaVu Sans Mono Bold';fill:#333333;stroke-width:0.96458161px"
         id="path1639"
         inkscape:connector-curvature="0" />
      <path
         d="m 166.74118,331.96687 h 8.30133 v 2.19074 l -5.4631,6.42869 h 5.4631 v 2.09507 h -8.52393 v -2.19074 l 5.47239,-6.4287 h -5.24979 z"
         style="font-style:normal;font-variant:normal;font-weight:bold;font-stretch:normal;font-size:20px;line-height:100%;font-family:'DejaVu Sans Mono';-inkscape-font-specification:'DejaVu Sans Mono Bold';fill:#333333;stroke-width:0.96458161px"
         id="path1641"
         inkscape:connector-curvature="0" />
      <path
         d="m 182.93572,337.64938 q -1.52114,0 -2.12402,0.4018 -0.6029,0.4018 -0.6029,1.37757 0,0.72706 0.41739,1.15755 0.41738,0.43049 1.13157,0.43049 1.07593,0 1.66955,-0.83228 0.59361,-0.84186 0.59361,-2.34379 v -0.19134 z m 3.78429,-1.08101 v 6.113 h -2.69909 v -1.19582 q -0.49158,0.70792 -1.26143,1.09059 -0.76984,0.38265 -1.69737,0.38265 -1.77157,0 -2.76401,-0.96621 -0.98317,-0.96622 -0.98317,-2.69776 0,-1.87503 1.17795,-2.76473 1.17796,-0.89924 3.64516,-0.89924 h 1.88287 v -0.46876 q 0,-0.67923 -0.48231,-1.02362 -0.47304,-0.35396 -1.40056,-0.35396 -0.97389,0 -1.89214,0.25829 -0.90897,0.24874 -1.90142,0.80358 v -2.39162 q 0.89969,-0.38266 1.82722,-0.56442 0.92752,-0.18177 1.96634,-0.18177 2.53214,0 3.55241,1.06188 1.02955,1.06189 1.02955,3.79792 z"
         style="font-style:normal;font-variant:normal;font-weight:bold;font-stretch:normal;font-size:20px;line-height:100%;font-family:'DejaVu Sans Mono';-inkscape-font-specification:'DejaVu Sans Mono Bold';fill:#333333;stroke-width:0.96458161px"
         id="path1643"
         inkscape:connector-curvature="0" />
      <path
         d="m 194.27004,328.92472 v 3.04215 h 3.5524 v 2.15247 h -3.5524 v 5.07026 q 0,0.71748 0.33391,1.03318 0.34318,0.30613 1.13158,0.30613 h 2.08691 v 2.15246 h -2.2817 q -2.33736,0 -3.16285,-0.76532 -0.82549,-0.77488 -0.82549,-2.86039 v -4.93632 h -2.65271 v -2.15247 h 2.65271 v -3.04215 z"
         style="font-style:normal;font-variant:normal;font-weight:bold;font-stretch:normal;font-size:20px;line-height:100%;font-family:'DejaVu Sans Mono';-inkscape-font-specification:'DejaVu Sans Mono Bold';fill:#333333;stroke-width:0.96458161px"
         id="path1645"
         inkscape:connector-curvature="0" />
      <path
         d="m 167.06581,351.55909 h 5.37964 v 8.56205 h 3.37618 v 2.15245 h -9.47928 v -2.15245 h 3.38546 v -6.40958 h -2.662 z m 2.662,-5.21374 h 2.71764 v 3.27174 h -2.71764 z"
         style="font-style:normal;font-variant:normal;font-weight:bold;font-stretch:normal;font-size:20px;line-height:100%;font-family:'DejaVu Sans Mono';-inkscape-font-specification:'DejaVu Sans Mono Bold';fill:#333333;stroke-width:0.96458161px"
         id="path1647"
         inkscape:connector-curvature="0" />
      <path
         d="m 182.1566,353.57763 q -0.9739,0 -1.53041,0.88969 -0.55651,0.88012 -0.55651,2.45859 0,1.57849 0.55651,2.46816 0.55651,0.88012 1.53041,0.88012 0.98317,0 1.53969,-0.88012 0.55651,-0.88967 0.55651,-2.46816 0,-1.57847 -0.55651,-2.45859 -0.55652,-0.88969 -1.53969,-0.88969 z m -4.80456,3.34828 q 0,-2.59253 1.29853,-4.10404 1.3078,-1.52107 3.50603,-1.52107 2.2075,0 3.50603,1.52107 1.30781,1.51151 1.30781,4.10404 0,2.59253 -1.30781,4.11361 -1.29853,1.5115 -3.50603,1.5115 -2.19823,0 -3.50603,-1.5115 -1.29853,-1.52108 -1.29853,-4.11361 z"
         style="font-style:normal;font-variant:normal;font-weight:bold;font-stretch:normal;font-size:20px;line-height:100%;font-family:'DejaVu Sans Mono';-inkscape-font-specification:'DejaVu Sans Mono Bold';fill:#333333;stroke-width:0.96458161px"
         id="path1649"
         inkscape:connector-curvature="0" />
      <path
         d="m 197.8039,355.31873 v 6.95486 h -2.69909 v -6.52435 q 0,-1.16712 -0.32464,-1.66458 -0.31535,-0.50703 -1.03882,-0.50703 -0.73275,0 -1.1594,0.67923 -0.41739,0.67922 -0.41739,1.8846 v 6.13213 h -2.69908 v -10.7145 h 2.69908 v 1.60718 q 0.28754,-0.88968 0.98318,-1.37757 0.69564,-0.4879 1.67881,-0.4879 1.47476,0 2.22605,1.01406 0.7513,1.00448 0.7513,3.00387 z"
         style="font-style:normal;font-variant:normal;font-weight:bold;font-stretch:normal;font-size:20px;line-height:100%;font-family:'DejaVu Sans Mono';-inkscape-font-specification:'DejaVu Sans Mono Bold';fill:#333333;stroke-width:0.96458161px"
         id="path1651"
         inkscape:connector-curvature="0" />
    </g>
  </g>
</svg>
