<?xml version="1.0" encoding="UTF-8" standalone="no"?>
<!-- Created with Inkscape (http://www.inkscape.org/) -->

<svg
   xmlns:dc="http://purl.org/dc/elements/1.1/"
   xmlns:cc="http://creativecommons.org/ns#"
   xmlns:rdf="http://www.w3.org/1999/02/22-rdf-syntax-ns#"
   xmlns:svg="http://www.w3.org/2000/svg"
   xmlns="http://www.w3.org/2000/svg"
   xmlns:sodipodi="http://sodipodi.sourceforge.net/DTD/sodipodi-0.dtd"
   xmlns:inkscape="http://www.inkscape.org/namespaces/inkscape"
   width="630"
   height="145"
   viewBox="0 0 590.62501 135.9375"
   id="svg2"
   version="1.1"
   inkscape:version="0.92.3 (2405546, 2018-03-11)"
   sodipodi:docname="logo-common.svg">
  <defs
     id="defs4" />
  <sodipodi:namedview
     id="base"
     pagecolor="#ffffff"
     bordercolor="#666666"
     borderopacity="1.0"
     inkscape:pageopacity="0.0"
     inkscape:pageshadow="2"
     inkscape:zoom="0.90509668"
     inkscape:cx="440.43113"
     inkscape:cy="53.199504"
     inkscape:document-units="px"
     inkscape:current-layer="text833"
     showgrid="false"
     inkscape:window-width="1920"
     inkscape:window-height="1014"
     inkscape:window-x="0"
     inkscape:window-y="27"
     inkscape:window-maximized="1"
     showguides="false"
     units="px">
    <inkscape:grid
       type="xygrid"
       id="grid4742" />
  </sodipodi:namedview>
  <metadata
     id="metadata7">
    <rdf:RDF>
      <cc:Work
         rdf:about="">
        <dc:format>image/svg+xml</dc:format>
        <dc:type
           rdf:resource="http://purl.org/dc/dcmitype/StillImage" />
        <dc:title></dc:title>
      </cc:Work>
    </rdf:RDF>
  </metadata>
  <g
     inkscape:label="Layer 1"
     inkscape:groupmode="layer"
     id="layer1"
     transform="translate(0,-916.42473)">
    <g
       id="g873"
       transform="translate(24.375,30)">
      <g
         aria-label="&gt; com."
         style="font-style:normal;font-weight:normal;font-size:164.53453064px;line-height:1.25;font-family:sans-serif;letter-spacing:0px;word-spacing:0px;fill:#000000;fill-opacity:1;stroke:none;stroke-width:4.11336327"
         id="text833">
        <g
           id="g837"
           transform="translate(-94.131593,321.87846)">
          <g
             transform="matrix(1.0030049,0,0,1.0003993,-0.20961188,-0.27971736)"
             id="g829">
            <path
               d="m 156.88173,632.742 q 0,3.19725 -1.59863,4.9957 -1.3988,1.59863 -4.19639,3.39708 l -74.935612,50.75639 q -0.799313,0.39966 -1.398797,0.59948 -0.399657,0 -0.799314,0 -1.798454,0 -2.997423,-1.19896 -1.198971,-1.19898 -1.198971,-2.99743 v -27.37647 q 0,-3.39709 2.198111,-5.39536 2.198112,-1.99829 4.196394,-3.39709 L 111.32088,628.5456 76.151098,604.96587 q -1.998282,-1.3988 -4.196394,-3.39709 -2.198111,-1.99828 -2.198111,-5.39536 v -27.37647 q 0,-1.79846 1.198971,-2.99743 1.198969,-1.19897 2.997423,-1.19897 0.399657,0 0.799314,0.19983 0.599484,0 1.398797,0.39966 l 74.935612,50.75638 q 2.79759,1.79846 4.19639,3.59691 1.59863,1.59863 1.59863,4.79588 z"
               style="font-style:normal;font-variant:normal;font-weight:normal;font-stretch:normal;font-family:Rubik;-inkscape-font-specification:Rubik;fill:#ff6600;fill-opacity:1;stroke-width:4.99570704"
               id="path853"
               inkscape:connector-curvature="0" />
            <path
               d="m 225.49681,639.53615 q -0.39966,2.99743 -0.39966,6.994 0,3.99656 0.39966,6.99399 0.59949,7.19381 5.39536,11.59003 4.79588,4.39623 12.78901,4.39623 6.59434,0 9.99142,-1.79846 3.59691,-1.99827 5.79502,-5.39536 0.99915,-1.59863 2.19811,-2.79759 1.3988,-1.19897 3.59691,-1.19897 h 26.17751 q 2.19811,0 3.79673,1.59863 1.79845,1.59862 1.59863,3.79673 -0.19982,3.19725 -2.59777,9.39192 -2.39793,6.19469 -8.39279,12.38937 -5.99485,5.99484 -16.18609,10.5909 -10.19124,4.39622 -25.97768,4.39622 -11.19038,0 -20.98196,-3.19726 -9.59176,-3.19725 -16.98541,-9.1921 -7.19382,-5.99485 -11.59004,-14.38763 -4.19639,-8.59263 -4.59604,-19.18352 -0.19984,-2.99742 -0.19984,-7.99313 0,-4.99571 0.19984,-7.99313 0.39965,-10.5909 4.59604,-18.98369 4.39622,-8.59261 11.59004,-14.58746 7.39365,-5.99486 16.98541,-9.19211 9.79158,-3.19725 20.98196,-3.19725 15.78644,0 25.97768,4.59605 10.19124,4.39622 16.18609,10.5909 5.99486,5.99485 8.39279,12.18953 2.39795,6.19467 2.59777,9.39192 0.19982,2.19811 -1.59863,3.79674 -1.59862,1.59862 -3.79673,1.59862 h -26.17751 q -2.19811,0 -3.59691,-1.19896 -1.19896,-1.19897 -2.19811,-2.7976 -2.19811,-3.39707 -5.79502,-5.19553 -3.39708,-1.99829 -9.99142,-1.99829 -7.99313,0 -12.78901,4.39623 -4.79587,4.39622 -5.39536,11.59003 z"
               style="font-style:normal;font-variant:normal;font-weight:normal;font-stretch:normal;font-family:Rubik;-inkscape-font-specification:Rubik;fill:#483737;fill-opacity:1;stroke-width:4.99570704"
               id="path855"
               inkscape:connector-curvature="0" />
            <path
               d="m 418.24369,638.93667 q 0.19984,2.99743 0.19984,7.79331 0,4.59605 -0.19984,7.59347 -0.39965,9.59176 -4.39622,17.98455 -3.99656,8.39279 -10.99056,14.78729 -6.99399,6.19467 -16.98539,9.79158 -9.7916,3.59692 -21.98112,3.59692 -12.18953,0 -22.18093,-3.59692 -9.7916,-3.59691 -16.78559,-9.79158 -6.99398,-6.3945 -10.99054,-14.78729 -3.99657,-8.39279 -4.39623,-17.98455 -0.19983,-2.99742 -0.19983,-7.59347 0,-4.79588 0.19983,-7.79331 0.19983,-9.59176 4.19639,-17.98455 3.99657,-8.39278 10.99056,-14.58746 7.19381,-6.3945 16.98541,-9.99142 9.9914,-3.79673 22.18093,-3.79673 12.18952,0 21.98112,3.79673 9.9914,3.59692 16.98539,9.99142 7.19382,6.19468 10.99056,14.58746 3.99657,8.39279 4.39622,17.98455 z m -72.73749,14.38764 q 0.59949,7.59348 5.39536,11.9897 4.99571,4.19639 12.98884,4.19639 7.99313,0 12.78901,-4.19639 4.99571,-4.39622 5.5952,-11.9897 0.39965,-2.99742 0.39965,-6.79416 0,-3.79673 -0.39965,-6.79416 -0.59949,-7.59347 -5.5952,-11.78987 -4.79588,-4.39623 -12.78901,-4.39623 -7.99313,0 -12.98884,4.39623 -4.79587,4.1964 -5.39536,11.78987 -0.39966,2.99743 -0.39966,6.79416 0,3.79674 0.39966,6.79416 z"
               style="font-style:normal;font-variant:normal;font-weight:normal;font-stretch:normal;font-family:Rubik;-inkscape-font-specification:Rubik;fill:#483737;fill-opacity:1;stroke-width:4.99570704"
               id="path857"
               inkscape:connector-curvature="0" />
            <path
               d="m 600.73375,693.09014 q 0,2.19811 -1.59863,3.79673 -1.59863,1.59863 -3.79674,1.59863 h -24.17921 q -2.19811,0 -3.79674,-1.59863 -1.59864,-1.59862 -1.59864,-3.79673 V 641.9341 q 0,-9.99142 -3.79673,-14.18781 -3.5969,-4.1964 -10.79073,-4.1964 -6.99399,0 -10.79072,4.1964 -3.59691,4.19639 -3.59691,14.18781 v 51.15604 q 0,2.19811 -1.59863,3.79673 -1.59863,1.59863 -3.79674,1.59863 h -24.17921 q -2.19811,0 -3.79675,-1.59863 -1.59863,-1.59862 -1.59863,-3.79673 V 641.9341 q 0,-9.99142 -3.79673,-14.18781 -3.5969,-4.1964 -10.79073,-4.1964 -6.99399,0 -10.79072,4.1964 -3.59691,3.99657 -3.59691,13.58832 v 51.75553 q 0,2.19811 -1.59863,3.79673 -1.59863,1.59863 -3.79674,1.59863 h -25.17836 q -2.19812,0 -3.79673,-1.59863 -1.59864,-1.59862 -1.59864,-3.79673 v -93.11998 q 0,-2.19811 1.59864,-3.79674 1.59861,-1.59863 3.79673,-1.59863 h 24.17922 q 2.19811,0 3.79674,1.59863 1.59862,1.59863 1.59862,3.79674 v 4.59605 q 4.39622,-5.5952 10.5909,-8.79245 6.39451,-3.19725 14.7873,-3.19725 10.19124,0 18.3842,3.79673 8.39279,3.79674 13.58832,11.78987 5.79503,-7.59347 13.98798,-11.59003 8.39279,-3.99657 17.98455,-3.99657 8.59261,0 15.78644,2.79759 7.39363,2.59777 12.58917,8.19297 5.39536,5.59518 8.19297,14.18781 2.99742,8.59261 2.99742,20.38248 z"
               style="font-style:normal;font-variant:normal;font-weight:normal;font-stretch:normal;font-family:Rubik;-inkscape-font-specification:Rubik;fill:#483737;fill-opacity:1;stroke-width:4.99570704"
               id="path859"
               inkscape:connector-curvature="0" />
            <path
               d="m 658.61214,693.09014 q 0,2.19811 -1.59863,3.79673 -1.59864,1.59863 -3.79675,1.59863 h -26.1775 q -2.19811,0 -3.79674,-1.59863 -1.59862,-1.59862 -1.59862,-3.79673 v -26.17751 q 0,-2.19811 1.59862,-3.79673 1.59863,-1.59863 3.79674,-1.59863 h 26.1775 q 2.19811,0 3.79675,1.59863 1.59863,1.59862 1.59863,3.79673 z"
               style="font-style:normal;font-variant:normal;font-weight:normal;font-stretch:normal;font-family:Rubik;-inkscape-font-specification:Rubik;fill:#5599ff;fill-opacity:1;stroke-width:4.99570704"
               id="path861"
               inkscape:connector-curvature="0" />
          </g>
        </g>
        <text
           xml:space="preserve"
           style="font-style:normal;font-weight:normal;font-size:37.5px;line-height:1.25;font-family:sans-serif;letter-spacing:0px;word-spacing:0px;fill:#000000;fill-opacity:1;stroke:none;stroke-width:3.85627794"
           x="445.83984"
           y="304.58878"
           id="text870"><tspan
             sodipodi:role="line"
             id="tspan868"
             x="445.83984"
             y="337.76749"
             style="stroke-width:3.85627794" /></text>
      </g>
    </g>
  </g>
</svg>
